<svg width="187" height="39" viewBox="0 0 187 39" fill="none" xmlns="http://www.w3.org/2000/svg">
<path d="M53.1902 15.5556C51.0886 13.2189 48.1027 12.0319 44.3102 12.0319C40.5177 12.0319 37.517 13.2189 35.4302 15.5556C33.3434 17.8922 32.2741 21.1905 32.2741 25.3415C32.2741 29.4926 33.336 32.7947 35.4339 35.1087C37.5318 37.4228 40.5288 38.6212 44.3139 38.6212C48.099 38.6212 51.0812 37.4378 53.1939 35.1087C55.3066 32.7796 56.3537 29.4964 56.3537 25.3415C56.3537 21.1867 55.2844 17.9034 53.1902 15.5556ZM39.2523 18.8764C40.3993 17.4301 42.105 16.6976 44.3176 16.6976C46.5302 16.6976 48.2174 17.4489 49.3718 18.8877C50.5262 20.3265 51.1404 22.5316 51.1404 25.3415C51.1404 28.1515 50.5447 30.3191 49.3755 31.7841C48.2063 33.2492 46.5191 33.963 44.3176 33.963C42.1161 33.963 40.3993 33.2116 39.2523 31.7841C38.1053 30.3566 37.48 28.1703 37.48 25.3603C37.48 22.5504 38.0868 20.3565 39.2486 18.8952L39.2523 18.8764Z" fill="#8E8E91"/>
<path d="M157.782 25.1688C157.782 20.8148 156.901 17.509 155.159 15.3415C153.416 13.1739 150.719 12.0507 147.167 12.0507C143.389 12.0507 140.425 13.2302 138.349 15.5593C136.274 17.8884 135.234 21.168 135.234 25.3265C135.234 29.4851 136.3 32.7947 138.398 35.12C140.495 37.4454 143.5 38.6362 147.307 38.6362C148.85 38.6345 150.387 38.4351 151.88 38.0427C153.558 37.5814 155.187 36.9522 156.742 36.1644L156.997 36.0366L155.332 32.0847L155.055 32.2049C153.785 32.7849 152.466 33.2476 151.114 33.5873C149.943 33.8552 148.745 33.9887 147.544 33.9855C145.365 33.9855 143.655 33.3206 142.468 32.002C141.28 30.6835 140.654 28.8878 140.492 26.5099H157.782V25.1688ZM140.762 22.0433C141.539 18.4632 143.633 16.7239 147.152 16.7239C148.754 16.7239 150.027 17.1972 150.929 18.1289C151.832 19.0605 152.298 20.3302 152.454 22.047L140.762 22.0433Z" fill="#8E8E91"/>
<path d="M183.837 15.5744C181.906 13.3467 179.142 12.2159 175.623 12.2159C174.246 12.2066 172.882 12.5001 171.627 13.0762C170.618 13.5468 169.695 14.1897 168.9 14.9771V0.562927H163.813V36.5926L163.983 36.6753C165.438 37.3343 166.966 37.8111 168.534 38.0953C170.267 38.4494 172.031 38.6306 173.799 38.6362C177.828 38.6362 181.025 37.4116 183.304 34.9923C185.584 32.573 186.734 29.2184 186.734 25.0072C186.731 20.9689 185.758 17.8095 183.837 15.5744ZM181.551 25.0147C181.551 27.8547 180.859 30.0899 179.497 31.6564C178.136 33.2229 176.212 34.0005 173.755 34.0005C172.101 34.0274 170.457 33.746 168.904 33.1703V21.4722C169.286 20.1058 170.116 18.9129 171.257 18.0913C172.454 17.2595 173.877 16.8299 175.327 16.8629C177.325 16.8629 178.824 17.5466 179.912 18.9553C180.999 20.364 181.551 22.4039 181.551 25.0147Z" fill="#8E8E91"/>
<path d="M73.7215 25.2401L82.472 12.6555H76.293L70.632 20.7923L64.971 12.6555H58.792L67.5425 25.2401L58.4294 38.3432H64.6084L70.632 29.6804L76.6556 38.3432H82.8346L73.7215 25.2401Z" fill="#8E8E91"/>
<path d="M130.176 1.16772L121.067 30.0298L111.957 1.16772H111.861H106.6H106.503L97.3941 30.0298L88.2847 1.16772H82.9308L94.6635 38.3432H94.7708H100.017H100.128L109.23 9.49989L118.332 38.3432H118.443H123.69H123.797L135.53 1.16772H130.176Z" fill="#8E8E91"/>
<path d="M27.1681 1.16772L16.4566 31.9306L5.7451 1.16772H0.380096L13.3264 38.3432H14.2218H18.6877H19.5868L32.5331 1.16772H27.1681Z" fill="#8E8E91"/>
</svg>
